<?xml version="1.0" standalone="no"?>
<!DOCTYPE svg PUBLIC "-//W3C//DTD SVG 20010904//EN"
 "http://www.w3.org/TR/2001/REC-SVG-20010904/DTD/svg10.dtd">
<svg version="1.0" xmlns="http://www.w3.org/2000/svg"
 width="2048.000000pt" height="2048.000000pt" viewBox="0 0 2048.000000 2048.000000"
 preserveAspectRatio="xMidYMid meet">

<g transform="translate(0.000000,2048.000000) scale(0.100000,-0.100000)"
fill="#000000" stroke="none">
<path d="M120 20474 c0 -3 48 -51 107 -107 58 -56 125 -127 148 -158 22 -30
62 -80 87 -110 26 -30 82 -108 124 -174 42 -66 87 -132 100 -147 12 -15 51
-81 85 -145 34 -65 97 -179 140 -253 92 -161 115 -207 106 -217 -19 -18 -112
97 -285 352 -56 83 -140 192 -187 243 -47 51 -85 96 -85 101 0 5 -15 16 -34
25 -18 9 -69 41 -112 73 -44 31 -132 94 -197 139 l-117 83 0 -10090 0 -10089
10240 0 10240 0 0 10240 0 10240 -8565 0 c-6965 0 -8567 -2 -8571 -13 -2 -7
-25 -24 -50 -37 -49 -28 -65 -20 -56 26 l4 24 -477 0 c-378 0 -476 -3 -472
-12 3 -7 21 -53 40 -103 89 -227 307 -662 421 -840 44 -69 51 -86 53 -137 2
-50 8 -67 51 -130 70 -106 98 -158 111 -203 6 -22 36 -83 66 -135 122 -207
177 -345 146 -364 -16 -11 -35 4 -76 59 -46 61 -106 125 -118 125 -5 0 -7 -18
-4 -39 4 -38 -21 -117 -42 -131 -19 -12 -31 -52 -31 -99 0 -60 -30 -132 -68
-161 -14 -12 -40 -20 -62 -20 l-38 0 25 -62 c30 -74 93 -181 197 -333 67 -98
132 -195 191 -284 186 -282 279 -405 300 -398 18 7 4 49 -46 147 -45 87 -49
100 -44 144 5 38 1 58 -20 101 -38 82 -31 211 12 203 17 -3 83 -89 132 -173
56 -96 219 -497 240 -590 11 -49 32 -143 46 -207 46 -210 101 -376 172 -513
84 -164 184 -344 243 -440 131 -214 280 -495 349 -660 28 -65 51 -123 51 -127
0 -15 -96 -56 -159 -66 -35 -7 -66 -14 -69 -17 -12 -12 38 -83 118 -169 47
-50 104 -116 127 -146 22 -31 76 -87 118 -125 43 -39 123 -113 179 -166 55
-53 135 -124 176 -159 41 -35 140 -122 220 -195 80 -72 183 -165 230 -207 147
-129 364 -419 415 -554 34 -91 33 -117 -10 -161 l-35 -36 0 -355 c0 -344 1
-356 25 -447 44 -168 79 -249 165 -390 101 -165 172 -245 534 -594 81 -79 116
-121 100 -121 -20 0 -137 83 -203 144 -42 39 -103 92 -136 118 -33 25 -128
115 -211 200 -139 141 -162 169 -286 358 -74 113 -167 261 -208 330 -95 162
-246 389 -357 536 -48 64 -110 149 -137 188 -27 39 -72 103 -101 141 -88 117
-166 245 -215 350 -54 114 -64 145 -46 145 19 0 40 -21 74 -71 17 -25 57 -74
89 -110 32 -35 69 -80 81 -99 13 -19 40 -46 59 -60 141 -100 248 -219 380
-420 89 -136 123 -176 135 -158 19 30 8 150 -21 237 -81 236 -118 299 -286
480 -39 42 -88 99 -110 126 -22 28 -76 91 -120 141 -120 137 -260 309 -375
461 -65 86 -93 113 -119 113 -6 0 30 -80 79 -177 106 -211 171 -361 160 -368
-19 -12 -43 12 -75 74 -19 36 -65 117 -102 179 -37 62 -123 205 -191 318 -115
192 -169 272 -376 562 -108 151 -193 284 -198 308 -5 29 33 19 104 -27 34 -21
63 -37 66 -34 4 4 -22 97 -73 256 -32 98 -32 103 3 95 61 -15 162 -58 185 -80
16 -14 34 -51 47 -95 17 -59 25 -72 46 -77 14 -4 30 -2 37 5 14 14 47 14 47 0
0 -6 -16 -25 -35 -43 -19 -19 -35 -41 -35 -50 0 -18 38 -36 76 -36 13 0 41 -9
61 -20 44 -23 63 -25 63 -6 0 24 -47 120 -130 265 -184 321 -223 379 -355 526
-45 50 -94 110 -110 134 -69 110 -184 251 -204 251 -7 0 -12 -28 -13 -67 -1
-38 -2 -77 -3 -88 -1 -11 -3 -28 -4 -37 0 -10 -5 -18 -10 -18 -39 0 -263 276
-296 366 -10 27 -35 85 -56 129 -20 44 -45 109 -55 145 -9 36 -32 121 -51 190
-18 69 -40 148 -47 175 -19 75 -119 267 -184 355 -31 43 -85 118 -119 166 -34
49 -108 155 -165 236 -57 81 -115 166 -130 190 -15 24 -47 70 -71 103 -24 33
-65 95 -91 139 -43 71 -91 137 -160 221 -20 24 -27 28 -37 18 -17 -17 -29 -16
-29 2 0 9 7 18 15 21 23 9 18 31 -25 115 -44 85 -47 99 -26 132 8 12 17 39 20
59 9 48 34 63 67 40 29 -20 208 -112 219 -112 15 0 70 83 70 105 0 12 28 51
65 90 35 39 65 75 65 80 0 6 -14 46 -31 90 -55 144 -69 188 -69 214 0 15 -9
52 -20 84 -12 34 -18 68 -14 82 9 38 -14 97 -153 397 -69 150 -155 336 -190
413 l-63 140 -995 3 c-547 1 -995 -1 -995 -4z m2092 -2006 c-7 -7 -12 -8 -12
-2 0 14 12 26 19 19 2 -3 -1 -11 -7 -17z m1126 -2151 c63 -52 126 -133 142
-184 7 -21 24 -64 38 -96 29 -66 22 -86 -15 -42 -14 17 -64 71 -112 121 -78
82 -88 97 -103 156 -28 105 -27 107 50 45z m60 -353 c59 -87 178 -295 207
-362 24 -56 11 -66 -28 -21 -46 53 -257 430 -257 459 0 26 27 0 78 -76z m3460
-4869 c99 -81 111 -95 86 -95 -9 0 -52 34 -96 75 -44 41 -84 75 -89 75 -5 0
-9 5 -9 10 0 20 20 8 108 -65z m164 -137 c22 -17 72 -63 112 -101 63 -61 146
-117 175 -117 6 0 99 -42 208 -94 114 -53 271 -118 368 -151 211 -71 220 -75
475 -233 120 -75 138 -88 200 -146 25 -23 88 -66 140 -95 52 -29 141 -83 197
-119 195 -128 488 -326 528 -357 22 -17 58 -42 79 -54 37 -21 114 -77 380
-277 66 -49 194 -145 285 -213 187 -140 667 -460 811 -540 52 -30 106 -62 120
-71 25 -18 70 -43 360 -203 210 -115 214 -117 227 -117 7 0 33 -10 59 -22 35
-17 56 -38 85 -83 45 -70 36 -79 -41 -46 -27 12 -64 21 -82 21 -18 1 -44 7
-58 15 -42 24 -88 19 -118 -13 -15 -15 -32 -36 -38 -47 -9 -17 -21 -18 -109
-16 -55 1 -101 4 -104 7 -3 3 0 13 5 22 9 14 31 18 110 22 l99 5 -2 34 c-3 61
-17 66 -175 66 -130 0 -142 -2 -152 -20 -21 -38 -39 -44 -125 -45 -64 0 -87
-4 -95 -15 -10 -14 -59 -16 -356 -18 l-345 -2 -23 23 c-16 16 -29 21 -44 16
-12 -4 -46 -6 -76 -6 -42 0 -57 5 -68 20 -11 16 -25 19 -76 19 -39 0 -74 6
-93 17 -16 9 -39 16 -50 16 -11 0 -29 7 -39 15 -11 8 -30 15 -42 15 -12 0 -42
9 -68 20 -30 14 -52 18 -63 12 -23 -11 -93 -6 -107 8 -15 15 -37 12 -50 -5
-10 -14 -16 -13 -53 5 -23 11 -47 20 -54 20 -16 0 -118 50 -125 61 -3 5 -16 9
-29 9 -40 0 -171 67 -224 114 -28 25 -64 52 -79 60 -35 19 -306 292 -374 378
-29 36 -73 92 -98 124 -25 31 -61 76 -81 98 -154 173 -485 686 -644 997 -35
69 -98 181 -141 250 -42 68 -88 143 -101 166 -13 23 -39 51 -56 62 -41 25
-277 264 -277 280 0 7 -40 54 -90 106 -86 91 -89 95 -79 125 14 38 31 38 81
-2z m11968 -8 c0 -25 -98 -318 -153 -459 -56 -145 -261 -548 -340 -668 -35
-54 -76 -118 -91 -143 -14 -25 -46 -70 -69 -102 -23 -31 -82 -110 -132 -176
-49 -66 -118 -160 -152 -209 -62 -88 -383 -417 -468 -478 -22 -16 -67 -53
-100 -81 -96 -82 -227 -179 -332 -246 -54 -34 -114 -74 -134 -90 -20 -15 -44
-28 -53 -28 -9 0 -46 -13 -83 -29 -180 -79 -373 -150 -389 -144 -6 2 -30 -5
-54 -16 -24 -11 -48 -17 -52 -15 -4 3 -8 55 -8 115 0 99 3 115 26 162 28 54
383 536 440 597 37 40 83 101 182 245 98 142 148 193 286 296 66 49 137 102
156 117 19 15 75 58 125 95 145 109 284 229 291 251 4 11 18 29 33 40 14 11
67 59 116 106 50 47 121 108 159 135 96 70 117 91 110 110 -8 19 43 76 96 107
19 12 150 134 290 273 140 139 262 255 270 258 21 6 30 -1 30 -23z m-1413
-3995 c69 -45 29 -142 -130 -319 -74 -82 -122 -115 -140 -97 -12 12 20 202 50
296 39 123 134 175 220 120z m-5498 -18 c11 -9 9 -14 -9 -29 -12 -10 -30 -18
-39 -18 -20 0 -82 -36 -98 -58 -7 -9 -13 -36 -13 -60 0 -55 18 -73 176 -173
369 -235 432 -287 489 -403 47 -94 62 -179 46 -264 -26 -138 -115 -309 -244
-466 -89 -107 -240 -266 -253 -266 -7 0 -72 31 -146 68 -73 38 -170 81 -214
96 -45 15 -90 33 -100 40 -20 15 -19 19 31 106 12 20 15 86 15 355 l1 330 92
57 c51 31 109 64 130 74 20 10 37 21 37 25 0 9 -85 71 -127 93 -47 24 -152
124 -173 166 -32 62 -34 102 -10 159 40 91 130 152 263 176 74 14 122 11 146
-8z m3434 -1 c8 -20 -6 -34 -50 -50 -67 -24 -119 -62 -139 -103 -16 -33 -19
-70 -24 -306 -3 -148 -1 -271 3 -274 4 -3 31 11 60 30 127 85 352 217 363 213
7 -3 16 -26 19 -53 4 -26 25 -93 46 -149 22 -55 39 -112 39 -125 0 -33 -81
-119 -138 -148 l-42 -21 33 -43 c48 -63 83 -150 107 -267 20 -99 40 -150 58
-150 5 0 17 7 28 15 10 8 29 15 42 15 47 0 22 -40 -109 -180 -140 -149 -150
-154 -164 -87 -4 18 -17 50 -30 72 -24 41 -48 124 -59 202 -13 88 -100 243
-136 243 -10 0 -41 -14 -69 -31 l-51 -32 1 -81 c1 -45 4 -92 8 -106 9 -32 45
-38 88 -15 37 20 63 14 63 -14 0 -18 -170 -209 -242 -273 -37 -32 -49 -28
-110 38 -23 25 -69 59 -101 75 -32 17 -61 37 -64 45 -3 9 9 27 33 48 l39 34 8
358 c10 469 1 927 -19 967 -22 42 -15 71 18 75 39 5 71 -34 92 -108 9 -33 20
-60 24 -60 4 0 23 28 42 61 69 122 146 181 257 198 53 8 69 5 76 -13z m-1425
-431 c9 -4 12 -33 10 -122 l-3 -118 -137 -3 -138 -3 0 124 c0 68 2 126 4 128
5 5 246 -1 264 -6z m-4444 -122 c87 -86 106 -120 106 -188 0 -25 3 -45 6 -45
3 0 75 66 160 148 85 81 164 151 174 156 16 7 32 -3 88 -55 46 -43 86 -71 123
-84 68 -26 74 -48 27 -101 l-33 -37 -3 -311 c-2 -171 0 -326 3 -343 5 -28 10
-33 33 -33 15 0 43 11 63 24 51 35 89 38 89 8 0 -19 -246 -312 -262 -312 -5 0
-30 20 -56 45 -26 25 -69 65 -97 89 l-50 45 0 358 c0 344 -1 360 -21 398 -12
23 -29 41 -41 43 -13 2 -51 -25 -111 -79 l-92 -82 0 -258 c0 -142 4 -268 9
-281 5 -13 25 -40 45 -60 20 -20 36 -41 36 -47 0 -6 -19 -20 -42 -32 -64 -33
-106 -68 -139 -116 -27 -39 -32 -42 -52 -31 -12 6 -40 31 -61 55 -22 25 -64
58 -93 75 -30 17 -57 37 -60 45 -3 9 12 33 38 59 l44 45 3 291 c2 250 1 299
-14 344 -30 96 -41 95 -169 -11 l-85 -70 0 -278 0 -279 40 -39 c55 -55 52 -71
-20 -110 -39 -20 -73 -49 -97 -80 -20 -27 -42 -50 -49 -53 -7 -3 -37 20 -66
50 -29 31 -79 69 -110 85 -32 16 -58 36 -58 44 0 8 17 34 38 56 l37 42 3 311
c2 171 0 326 -3 344 -6 33 -6 33 -50 26 -25 -3 -52 -4 -60 0 -14 5 -14 9 0 36
20 39 212 255 226 255 6 0 21 -20 32 -45 13 -25 37 -55 57 -68 46 -30 70 -76
70 -134 0 -32 4 -48 13 -48 17 0 234 195 305 274 18 20 36 36 40 36 5 0 43
-35 86 -77z m3804 -106 c67 -101 122 -193 122 -204 0 -15 -63 -68 -240 -202
-149 -113 -240 -188 -240 -199 0 -9 10 -34 23 -54 73 -119 239 -143 374 -53
42 27 73 25 73 -4 0 -22 -324 -345 -350 -349 -14 -2 -23 5 -30 22 -7 18 -34
37 -103 71 -114 55 -163 96 -201 165 -49 91 -56 135 -56 383 0 184 3 235 15
260 9 19 47 54 93 87 131 93 382 260 391 260 4 0 62 -82 129 -183z m-2134 139
c3 -13 3 -37 1 -53 -5 -23 10 -54 75 -163 125 -209 144 -252 148 -335 4 -62 0
-79 -26 -136 -16 -35 -45 -87 -63 -116 -50 -76 -359 -413 -379 -413 -10 0 -64
24 -121 54 -57 30 -153 69 -213 88 -60 18 -111 38 -113 45 -3 7 8 34 23 60
l29 48 0 349 1 348 44 18 c25 10 160 65 300 123 140 58 262 105 271 106 10 1
19 -9 23 -23z m6131 -35 c1 -47 4 -57 30 -78 17 -13 58 -37 92 -54 34 -16 65
-34 68 -39 8 -13 -13 -51 -42 -73 l-23 -19 2 -311 3 -312 27 -3 c17 -2 42 7
65 22 42 29 93 35 93 11 0 -15 -12 -30 -163 -202 -55 -62 -105 -113 -112 -113
-7 0 -23 16 -35 35 -12 20 -34 42 -48 50 -30 16 -57 39 -87 74 -19 22 -20 41
-25 395 l-5 371 -28 3 c-15 2 -47 -6 -71 -17 -50 -25 -60 -26 -75 -7 -10 12
15 42 141 170 175 177 193 186 193 97z m-899 20 c44 -32 156 -77 287 -116 48
-14 87 -30 87 -36 0 -20 -31 -69 -50 -79 -19 -10 -20 -21 -20 -333 0 -238 3
-326 12 -335 19 -19 48 -14 84 13 18 14 39 25 46 25 15 0 38 -19 38 -32 0 -4
-28 -40 -63 -80 -34 -40 -79 -93 -99 -118 -73 -91 -86 -103 -102 -97 -9 4 -20
17 -25 30 -5 13 -39 47 -76 76 -65 51 -95 96 -95 141 0 28 -23 25 -62 -8 -72
-62 -311 -235 -327 -236 -12 -1 -17 10 -19 48 -2 32 -11 60 -26 80 -70 92
-126 256 -133 386 -4 80 -2 105 17 160 36 109 95 197 204 305 94 94 260 235
275 235 4 0 25 -13 47 -29z m-2509 -881 l64 0 -3 -127 -3 -128 -135 0 -135 0
-3 134 -3 134 77 -7 c42 -3 106 -6 141 -6z m4200 -5 c9 -3 11 -34 8 -122 -3
-65 -5 -121 -5 -125 0 -5 -61 -8 -135 -8 l-135 0 0 128 c0 71 3 131 6 134 6 6
240 -1 261 -7z"/>
<path d="M12033 6270 l-41 -30 -1 -315 c-1 -173 1 -330 4 -349 5 -26 14 -37
37 -47 17 -7 67 -35 111 -62 l82 -49 28 33 c86 100 145 305 134 461 -11 138
-22 165 -101 243 -71 71 -172 145 -198 145 -8 0 -32 -13 -55 -30z"/>
<path d="M15445 6189 c-16 -11 -56 -33 -87 -50 l-58 -29 0 -145 c0 -104 3
-145 12 -145 6 0 62 34 125 75 156 104 164 125 106 258 -29 64 -46 70 -98 36z"/>
<path d="M13128 6233 c-33 -38 -37 -63 -38 -234 0 -96 -1 -180 0 -187 0 -10 8
-7 28 7 15 12 69 51 120 88 50 36 92 73 92 81 0 8 -34 71 -77 138 -78 127 -95
141 -125 107z"/>
<path d="M10998 6234 l-38 -16 0 -353 0 -353 58 -22 c31 -13 79 -34 107 -48
l49 -25 29 34 c43 53 71 157 72 269 0 111 -14 159 -81 275 -25 44 -61 112 -81
150 -19 39 -38 77 -42 85 -11 21 -30 22 -73 4z"/>
<path d="M16335 6184 c-13 -14 -34 -52 -46 -83 -19 -51 -20 -71 -17 -226 4
-156 7 -176 32 -245 30 -78 72 -150 89 -150 14 0 119 66 150 94 l27 25 0 253
c0 139 -4 258 -8 265 -8 12 -135 74 -179 87 -17 6 -29 1 -48 -20z"/>
<path d="M2623 18468 c2 -7 10 -13 17 -13 7 0 15 6 18 13 2 7 -5 12 -18 12
-13 0 -20 -5 -17 -12z"/>
<path d="M4154 15303 c30 -55 72 -108 88 -111 27 -5 32 31 6 51 -12 11 -27 33
-33 50 -8 26 -16 33 -43 35 l-33 3 15 -28z"/>
</g>
</svg>
